HIERARCHY
ROOT Hips
{
    OFFSET 12.920206069946289 81.09098815917969 -16.95142364501953
    CHANNELS 6 Xposition Yposition Zposition Zrotation Xrotation Yrotation
    JOINT RightUpLeg
    {
        OFFSET -12.920206069946289 0.0 0.0
        CHANNELS 3 Zrotation Xrotation Yrotation
        JOINT RightLeg
        {
            OFFSET 0.0 -38.71242904663086 0.0
            CHANNELS 3 Zrotation Xrotation Yrotation
            JOINT RightFoot
            {
                OFFSET 0.0 -42.37855911254883 0.0
                CHANNELS 3 Zrotation Xrotation Yrotation
                End Site
                {
                    OFFSET 0.0 0.0 16.95142364501953
                }
            }
        }
    }
    JOINT LeftUpLeg
    {
        OFFSET 12.920206069946289 0.0 0.0
        CHANNELS 3 Zrotation Xrotation Yrotation
        JOINT LeftLeg
        {
            OFFSET 0.0 -38.71242904663086 0.0
            CHANNELS 3 Zrotation Xrotation Yrotation
            JOINT LeftFoot
            {
                OFFSET 0.0 -42.37855911254883 0.0
                CHANNELS 3 Zrotation Xrotation Yrotation
                End Site
                {
                    OFFSET 0.0 0.0 16.95142364501953
                }
            }
        }
    }
    JOINT Spine
    {
        OFFSET 0.0 21.740419387817383 0.0
        CHANNELS 3 Zrotation Xrotation Yrotation
        JOINT Spine3
        {
            OFFSET 0.0 24.721912384033203 0.0
            CHANNELS 3 Zrotation Xrotation Yrotation
            JOINT Neck
            {
                OFFSET 0.0 10.443233489990234 0.0
                CHANNELS 3 Zrotation Xrotation Yrotation
                End Site
                {
                    OFFSET 0.0 4.177293300628662 0.0
                }
            }
            JOINT LeftArm
            {
                OFFSET 14.306474685668945 0.0 0.0
                CHANNELS 3 Zrotation Xrotation Yrotation
                JOINT LeftForeArm
                {
                    OFFSET 25.547161102294922 0.0 0.0
                    CHANNELS 3 Zrotation Xrotation Yrotation
                    JOINT LeftHand
                    {
                        OFFSET 17.224361419677734 0.0 0.0
                        CHANNELS 3 Zrotation Xrotation Yrotation
                        End Site
                        {
                            OFFSET 6.889744281768799 0.0 0.0
                        }
                    }
                }
            }
            JOINT RightArm
            {
                OFFSET -14.306474685668945 0.0 0.0
                CHANNELS 3 Zrotation Xrotation Yrotation
                JOINT RightForeArm
                {
                    OFFSET -25.547161102294922 0.0 0.0
                    CHANNELS 3 Zrotation Xrotation Yrotation
                    JOINT RightHand
                    {
                        OFFSET -17.224361419677734 0.0 0.0
                        CHANNELS 3 Zrotation Xrotation Yrotation
                        End Site
                        {
                            OFFSET -6.889744281768799 0.0 0.0
                        }
                    }
                }
            }
        }
    }
}
MOTION
Frames: 6
Frame Time: 0.03333333333333333
0.0005159145221114159 62.658363342285156 -0.0008026137948036194 4.587507880597903 -8.253808637563921 65.53301159009214 24.7392114374419 -66.52833805996211 14.395822626473157 13.615179430776593 76.68807565433697 -19.287405842393554 -3.241462437630585e-32 -3.975693351829396e-16 -9.34287937679908e-15 -13.103251383548132 -67.1154288702217 -20.584002310047644 81.63322977064557 84.5275982172051 -73.11710467835755 3.9756933518293945e-16 -1.6399735076296255e-15 -5.5659706925611536e-15 11.593080040521157 29.14268080957162 -1.2194524609397508 2.2648936047295047e-07 -4.0104870853703454e-07 5.534254329270106 -3.9329011822437465 -10.164649169804374 -177.53921410186376 114.52578806916713 -28.5315715562387 -151.41186592617706 2.368710428898198e-06 3.878278613624218e-06 65.14643956757583 -6.361109362927035e-15 0.0 0.0 -122.61886405289188 -2.1351602189776155 145.4394055838728 -2.377254344430899e-06 -8.569587409528966e-07 -78.90537458947355 0.0 0.0 -7.951386703658791e-16
0.0005228950758464634 62.65837097167969 -0.0008016915526241064 4.499352066884127 -8.24043050584659 65.43675998286665 25.035009599798805 -66.64520826949418 14.682391001214105 14.022482315949588 76.8399452102846 -19.780142306166855 0.0 0.0 2.0375428428125655e-15 -13.063898828140571 -67.28821490133907 -20.57113749535835 83.69151131225522 84.55263443067138 -75.25918209688747 1.6896696745274934e-15 1.5902773407317584e-15 -1.180283963824352e-15 11.58130397679053 29.18376395386773 -1.2150871413486815 1.622564006374417e-06 1.6235855224607461e-06 5.577892258274706 -3.9756945636999723 -10.000271822512623 -177.45246669325843 114.79113001525369 -28.717632265728177 -151.2337641448133 -2.6755971423958726e-06 1.0783036419021124e-06 65.29769891561679 1.5902773407317584e-15 4.4139062980501586e-32 3.1805546814635168e-15 -122.62494736325871 -2.0414222993767837 145.47292152229647 2.1763272082922597e-06 -3.4261096276213543e-07 -79.04478105898247 0.0 0.0 0.0
0.000531575467903167 62.658363342285156 -0.0008028069860301912 4.398544664074711 -8.200442566737486 65.35686242677058 25.24505788083757 -66.70527674511412 14.837650033362372 13.835234077458948 76.71892585136818 -19.632783484756732 -7.951386703658792e-16 -5.655317444376766e-32 8.150171371250262e-15 -12.440524414601548 -67.39705465605245 -20.045675177567556 83.99375732412703 84.59346072407864 -75.80945244029071 1.5902773407317584e-15 1.5405811738338909e-15 -4.485079062532537e-15 11.626588773606764 29.29583582926546 -1.217076007329038 6.836689990454981e-07 8.315126885901973e-07 5.635808872336537 -3.9346161727517717 -9.995451480168779 -177.1852951684678 114.73735746584946 -28.777196014894432 -151.16855025445324 -7.454755276169733e-07 -7.204546925939327e-06 65.28726957268445 -7.951386703658792e-15 0.0 0.0 -122.70238618986659 -2.2008181361856076 145.4594246957588 1.6721151393267938e-06 1.550841801798803e-06 -79.37911651853176 -3.975693351829396e-16 0.0 0.0
0.0005239524180069566 62.65837097167969 -0.0008120525162667036 4.31635498995134 -8.184877751335625 65.52386827435888 25.044159871416188 -66.70460161692338 14.591151271037374 13.510713136576834 76.7127719904287 -19.21533667611847 -2.2414367919785962e-32 -7.951386703658792e-16 -3.2302508483613843e-15 -12.056630833332566 -67.32901859839083 -19.73561388031547 81.61068411683296 84.70664117166669 -73.51308299052869 1.3417965062424209e-15 1.5654292572828244e-15 3.0997984102544817e-15 11.615001521324842 29.432787001088105 -1.184950560265599 -4.253541609725194e-07 7.499718676427641e-07 5.4773809671419835 -3.9131244375077703 -9.997127906873333 -176.84892592440167 114.86165632600715 -28.65913965157021 -150.8932836963839 4.7225676593109085e-06 -4.486677169287286e-06 65.59207834551609 3.1805546814635168e-15 8.827812596100317e-32 3.1805546814635168e-15 -122.56920445677535 -2.0903732468429435 145.54761676489488 -2.2981584145064626e-06 -6.808708887208766e-07 -79.63424160528456 0.0 0.0 -3.975693351829396e-16
0.0005324124940671027 62.65837478637695 -0.000807860866189003 4.12910056860266 -8.210708222179495 65.48562374811858 25.328750365703584 -66.78801008563352 14.822495747499648 13.738519384516938 76.68678768716909 -19.505242329957124 -5.138062800074012e-32 -7.951386703658791e-16 -7.404728867782248e-15 -12.050764228499569 -67.5913860559299 -19.807338035771284 84.195438176472 84.6997734426729 -76.18208280162332 4.47265502080807e-16 2.4848083448933746e-17 6.516409884482868e-15 11.68333199710478 29.44766765054241 -1.1968740545823888 -5.841800840637042e-07 1.6516264660844853e-06 5.613803789012675 -3.7681519809059307 -10.13695768798094 -176.50322775518265 114.96748872640308 -28.87864845363022 -150.7857092007793 -2.967914920142768e-06 2.815489524673231e-06 65.50434400734001 -1.5902773407317584e-15 -6.361109362927035e-15 6.361109362927035e-15 -122.51693407164274 -2.0750382855420813 145.5097421918036 -3.1537324570088454e-06 6.817981045256197e-07 -79.84778374078013 0.0 0.0 0.0
0.0005388897261582315 62.65837097167969 -0.0008151295478455722 3.9809535783009444 -8.225716057944096 65.3271214996444 25.22994321147497 -66.73259274338157 14.638060862632114 14.04383404319396 76.36686082539408 -19.721855225088067 0.0 0.0 -1.7890620083232284e-15 -11.772234155973091 -67.57471796930005 -19.630638717843098 82.61498782795115 84.66872239219278 -74.65607053240548 -1.2627479004040956e-31 -1.5654292572828246e-15 -9.243487043003345e-15 11.827361029017382 29.652614158633625 -1.229574097019653 1.2737650737140653e-06 -3.446509952344846e-07 5.693607057506717 -4.252130138097782 -10.528302139845836 -176.36214665771325 115.27773923323483 -29.278519594230563 -150.46748775623962 1.0140597966708937e-06 3.3079982997662927e-06 64.7807847966978 -4.4139062980501586e-32 1.5902773407317582e-15 3.1805546814635164e-15 -122.60378901525651 -2.1877297839383374 145.45253809588428 2.7504344950703425e-06 4.186361115064221e-06 -80.35514840173808 -3.975693351829395e-16 -6.361109362927033e-15 7.951386703658791e-16
